<?xml version="1.0" standalone="no"?>
<!DOCTYPE svg PUBLIC "-//W3C//DTD SVG 20010904//EN"
 "http://www.w3.org/TR/2001/REC-SVG-20010904/DTD/svg10.dtd">
<svg version="1.0" xmlns="http://www.w3.org/2000/svg"
 width="614.000000pt" height="614.000000pt" viewBox="0 0 614.000000 614.000000"
 preserveAspectRatio="xMidYMid meet">
<metadata>
Created by potrace 1.11, written by Peter Selinger 2001-2013
</metadata>
<g transform="translate(0.000000,614.000000) scale(0.100000,-0.100000)"
fill="#000000" stroke="none">
<path d="M4915 6120 c-54 -12 -369 -137 -500 -199 l-105 -50 -84 45 c-185 98
-380 144 -653 151 -287 9 -629 -33 -842 -103 -219 -72 -450 -206 -635 -369
l-98 -87 -107 17 c-145 23 -391 31 -520 16 -198 -23 -363 -80 -500 -171 -178
-120 -288 -282 -351 -520 -28 -106 -39 -383 -21 -541 15 -134 88 -497 152
-757 226 -924 486 -1285 837 -1165 24 8 46 12 49 10 2 -3 -12 -69 -31 -147
-60 -239 -46 -371 48 -458 50 -46 95 -63 172 -65 l55 -2 -5 -30 c-35 -202 -40
-479 -12 -610 19 -89 44 -137 106 -208 l42 -48 -26 -92 c-63 -217 -73 -422
-27 -539 41 -105 135 -174 254 -185 74 -6 268 12 352 33 126 33 186 82 230
191 13 32 27 59 32 60 4 1 22 -19 38 -45 38 -60 109 -107 183 -123 51 -11 85
-8 337 25 368 50 352 45 402 101 73 80 97 200 72 355 -8 55 -58 216 -83 272
-6 12 4 24 41 49 121 83 192 173 219 278 14 57 15 85 4 255 -7 105 -14 194
-16 198 -3 4 15 12 38 18 170 44 304 124 422 251 96 104 129 198 128 364 -1
115 -23 212 -77 337 -19 45 -35 84 -35 86 0 3 37 2 83 -1 162 -13 451 30 534
78 134 79 274 243 377 445 104 203 166 391 226 679 17 80 44 196 60 256 85
313 130 600 137 886 6 239 -3 352 -43 509 -70 278 -246 470 -489 536 -69 18
-308 28 -370 14z m283 -136 c329 -67 488 -378 469 -914 -10 -268 -60 -583
-140 -880 -19 -69 -51 -204 -71 -300 -87 -409 -234 -715 -429 -897 -85 -79
-107 -90 -225 -113 -205 -39 -375 -34 -530 15 -96 30 -212 103 -270 171 -38
44 -95 146 -104 186 -2 10 33 42 97 90 292 219 494 509 620 892 70 213 88 329
89 586 1 220 -9 303 -51 450 -44 154 -132 309 -236 418 -49 51 -58 65 -47 72
64 41 491 216 560 230 62 13 189 10 268 -6z m-1370 -72 c491 -107 746 -396
802 -911 38 -345 -36 -714 -211 -1051 -114 -219 -285 -423 -467 -553 -216
-156 -519 -267 -724 -267 -92 0 -142 -16 -177 -56 -26 -29 -29 -42 -36 -126
-15 -214 -47 -338 -101 -395 -30 -32 -38 -35 -70 -30 -53 9 -79 30 -108 89
-36 73 -46 140 -36 223 9 78 1 141 -24 179 -17 26 -31 30 -145 41 -159 15
-359 89 -484 179 -131 92 -263 259 -323 407 -51 124 -74 227 -85 385 -11 167
-1 373 26 529 93 540 397 955 876 1195 182 92 354 139 639 175 168 21 523 14
648 -13z m-2113 -502 c55 -5 130 -15 166 -21 l66 -12 -58 -81 c-234 -323 -351
-792 -320 -1271 15 -219 40 -313 129 -491 42 -84 91 -154 149 -216 l35 -36
-98 -293 -99 -292 -79 -63 c-159 -127 -257 -156 -351 -107 -138 72 -278 327
-400 728 -70 229 -171 662 -215 921 -73 427 -26 724 149 940 178 219 531 331
926 294z m2147 -2258 c38 -81 120 -181 183 -223 52 -34 176 -202 229 -311 65
-132 90 -237 84 -358 -6 -107 -20 -150 -74 -216 -112 -136 -327 -243 -491
-244 -64 0 -189 27 -247 53 -155 71 -196 181 -112 296 56 76 190 172 358 254
151 74 178 98 143 123 -22 16 -74 -3 -232 -86 l-111 -58 -22 51 c-56 130 -94
371 -88 561 l3 99 95 32 c52 18 127 48 165 67 39 19 72 36 75 36 3 1 21 -33
42 -76z m-1871 35 c56 -42 134 -89 177 -106 24 -10 31 -18 27 -30 -4 -9 -49
-142 -100 -296 -94 -281 -173 -558 -215 -757 -22 -102 -25 -108 -53 -118 -101
-35 -192 -18 -223 42 -22 40 -24 147 -5 228 47 199 325 1070 342 1070 3 0 26
-15 50 -33z m866 -898 c23 -6 49 -19 57 -28 16 -17 314 -722 361 -854 59 -162
27 -202 -205 -258 -99 -23 -132 -24 -177 -2 -41 19 -47 31 -68 140 -28 147
-51 207 -94 246 -75 68 -158 58 -198 -23 -20 -38 -23 -60 -23 -160 0 -90 -4
-124 -19 -155 -29 -64 -61 -87 -119 -87 -69 0 -109 24 -134 80 -19 42 -20 59
-14 182 9 203 35 350 92 520 55 164 160 341 230 387 45 29 220 36 311 12z
m678 -1462 c77 -166 101 -358 57 -444 -12 -23 -30 -44 -39 -47 -10 -2 -143
-21 -296 -42 l-278 -37 -46 19 c-91 38 -133 140 -133 324 l0 107 138 26 c175
34 372 88 476 131 44 18 82 34 84 35 2 0 19 -32 37 -72z m-1423 -55 c37 -17
100 -41 140 -52 93 -25 266 -42 341 -34 69 8 67 15 32 -141 -48 -211 -90 -312
-142 -338 -53 -27 -180 -49 -300 -50 -137 -2 -165 8 -204 77 -35 61 -39 209
-9 347 26 124 59 232 68 227 4 -2 37 -18 74 -36z"/>
<path d="M3252 4417 c-32 -34 -29 -84 10 -141 40 -61 70 -76 99 -50 28 25 49
67 49 97 0 12 -13 44 -30 70 -27 43 -33 47 -68 47 -27 0 -45 -7 -60 -23z"/>
<path d="M2477 4232 c-33 -36 -18 -103 40 -179 57 -75 146 -38 160 66 11 84
-37 131 -134 131 -36 0 -55 -5 -66 -18z"/>
<path d="M2627 2098 c-65 -87 -120 -234 -121 -325 -1 -55 2 -65 29 -93 33 -34
93 -54 134 -45 16 3 41 20 57 36 29 30 29 31 28 157 -1 244 -58 363 -127 270z"/>
</g>
</svg>
