<svg xmlns="http://www.w3.org/2000/svg" width="600px" height="216px" style="fill-rule:evenodd" viewBox="0 0 6000 2160">
<title>Askalandia - Kraina Zabaw</title>
<desc>Logo sali zabaw. Gorzów Wlkp.</desc>
<defs>
<style>
<![CDATA[
 .fil0 {fill:#188AD6}
 .fil1 {fill:#E02147}
 .fil2 {fill:#28A8DE}
 .fil3 {fill:#524AAB}
 .fil4 {fill:#B3208C}
 .fil5 {fill:#ED177B}
 .fil6 {fill:#E22A38}
 .fil7 {fill:#EC7C2D}
 .fil8 {fill:#F5D000}
 .fil9 {fill:#9BBD3C}
.fil10 {fill:#0F994E}
  ]]>
</style>
</defs>
<g id="logo_full">
  <path class="fil0" d="M1578 1699c0-16 15-30 32-30 8 1 16 1 25 1 17 0 31 13 31 30-1 16-15 29-32 29h-25c-17 0-31-14-31-30zm1 83c-1-25 18-40 42-41 23-1 42 17 43 40v142c0 24-19 40-42 40-24 0-43-16-43-40v-141zm2014-9c-8-23 6-39 29-38 22 1 44 17 49 39 6 20 11 41 16 61 6 22 16 22 22 1l20-63c7-21 30-38 51-38 21-1 44 17 52 38l21 63c7 21 18 21 23-1 5-20 10-41 16-62 5-23 30-41 54-39 21 2 31 18 24 38l-54 146c-8 21-31 38-52 38s-43-17-51-38l-19-57c-7-21-18-21-25 1l-19 56c-7 21-29 39-50 39s-45-17-52-38l-55-146zm-560-80c-1-25 18-41 42-41 23 0 43 16 43 40v26c0 22 8 32 19 25 9-7 35-12 46-12 66 0 94 54 94 113 0 38-11 84-45 106-26 16-61 18-89 4-9-5-19-14-30-28 0 18-18 33-40 33s-40-18-40-40v-226zm85 154c0 25 8 54 38 54s36-32 36-55-7-51-35-51c-29 0-39 27-39 52zm-624-80c0-16 18-29 41-29h125c22 0 40 11 40 25 0 13-12 38-28 53l-55 57c-16 16-10 29 12 29h38c22 0 41 13 41 29s-18 29-41 29l-140 1c-22 0-41-13-41-28s13-41 28-57l50-51c16-16 10-29-12-29h-17c-23 1-41-12-41-29zm-776 14c0-22 18-40 39-40 22 0 40 8 40 18 0 8 7 7 17-1 20-16 37-23 63-23 24 0 42 7 56 21 13 14 20 36 20 65v101c0 25-18 40-42 40s-43-16-43-40v-41l-2-42c0-12 2-19-6-28-5-6-13-9-22-9-10 0-19 4-25 12-7 8-10 22-10 42v66c1 25-19 41-42 41s-43-16-43-40v-142zm-351 33c-14-1-27-3-41-4-22-3-38-16-33-30 3-8 19-23 31-30 32-17 106-15 138-9 72 13 62 80 62 135 1 46-4 57 11 88-21 0-80 4-86-13-1-3-2-8-3-14-25 24-50 32-85 32-89 0-95-75-67-105 24-26 96-28 147-49 0-45-56-24-61-21-5 4-10 10-13 20zm74 58c0-19-62 5-69 11-22 21 7 54 47 32 17-10 22-23 22-43zm-173-123c-4 8-7 16-11 23-8 21-23 34-34 31-10-2-24 4-31 14-15 23-13 71-13 107 0 23-18 41-43 41s-43-18-43-41v-141c0-22 18-40 39-40 22 0 40 8 40 18 0 8 5 7 11-1s5-8 13-14c21-15 48-9 72 3zm-462-50c0-53 87-54 87 0v78c0 22 12 26 27 9 34-41 54-43 101-43 22 0 27 12 11 28-7 7-14 14-21 22-16 15-20 44-8 63l43 74c28 48-69 48-94-1-3-5-5-11-8-17-25-49-50-10-50 25 0 37-87 44-87-12l-1-226zm1275 113c-13-2-27-3-41-4-22-3-37-16-33-30 3-8 19-23 31-30 32-17 106-15 138-9 72 13 63 79 63 135 0 46-4 56 11 87-21 1-81 5-87-12 0-3-1-8-3-14-25 24-50 32-85 32-89 0-94-75-67-105 24-26 96-28 147-49 0-45-56-24-60-21-6 4-10 10-14 20zm75 58c-1-19-63 5-70 11-22 21 7 54 47 32 17-10 23-23 23-43zm664-60c-14-2-27-3-41-5-22-2-38-16-33-29 3-8 19-24 31-30 32-18 106-15 138-10 72 14 62 80 62 135 0 47-4 57 11 88-21 0-80 5-86-13-1-3-2-7-3-14-25 25-50 33-86 33-89 0-94-75-66-106 24-26 96-28 147-48 0-45-56-24-61-21s-10 10-13 20zm74 58c0-19-63 4-69 11-22 21 7 54 47 31 17-9 22-23 22-42zm502-60c-14-2-28-3-41-4-23-3-38-16-33-30 2-8 19-23 31-30 32-17 106-15 138-9 72 13 62 79 62 135 0 46-4 56 11 87-21 1-81 5-86-12-1-3-2-8-3-14-25 24-50 32-86 32-89 0-94-75-66-105 23-26 95-28 147-49-1-45-56-24-61-21-6 4-10 10-13 20zm74 58c0-19-63 5-70 11-22 21 8 54 47 32 17-10 23-23 23-43z"/>
  <g id="logo_main">
    <path class="fil0" d="M4742 1256c-20 0-37 17-37 38 0 20 17 37 37 37 21 0 38-17 38-37 0-21-17-38-38-38zm-584 451c0 247 200 446 447 446 246 0 446-199 446-446 0-28-3-56-8-83 52 21 116 40 172 35 38-3 72-17 97-48 37-48 32-103-13-144-20-18-46-33-76-43-19-7-40-12-62-15h-3l-1-1h-7l-1-1h-9l-1-1h-14l-1-1h-37l-3 1h-4c-23 1-47 5-70 12 35-59 56-129 56-203 0-121-55-230-140-302 41-70 119-109 199-109 104 0 191 67 208 161l4 20c35 11 65 33 85 62 2-6 3-13 2-20l-15-76c-25-135-147-225-284-225-105 0-207 52-263 143-57-32-123-50-193-50-44 0-86 7-126 20-39-51-94-90-160-109-173-51-372 50-393 240l-25 222c-2 20-2 41 1 61 2 25 9 49 18 72-81 59-34 149 27 200 41 34 99 63 160 76-8 34-13 69-13 106zm764-188c85 143 64 328-57 449-144 144-377 144-521 0-146-146-143-380 3-524 42 59 101 106 168 135v42c0 65 53 118 118 118s117-53 117-118v-20c65-13 123-42 172-82zm-615-144c-15 13-28 27-41 42-43-43-115-103-186-114-16-31-23-66-19-101l24-222c10-94 97-167 205-168 62 0 122 25 164 70-109 71-181 194-181 333 0 57 12 111 34 160zm694 127l21-7c58-19 125-15 175 2 26 9 81 32 54 66-50 63-213-24-239-39-4-8-7-15-11-22zm-805 25c-51-9-101-33-135-62-17-14-30-28-37-42-9-18-7-28 10-38 55-33 143 49 186 95-9 15-17 31-24 47zm609 374c11-27 10-57 0-82-38-91-165-85-198 0l-31 74c-23 56 6 120 59 140 59 22 120-7 139-58l31-74zm-287-58c-4-26-8-53-13-79-14-93-136-123-192-45-37 51-11 107-6 158 2 30 21 54 43 70 77 56 183-10 168-104zm-81 34c-16 22-50 14-54-12s-8-53-13-79c-6-39 53-48 59-10l13 79c1 8-1 16-5 22zm265 68c-14 36-70 14-54-23 10-24 20-49 30-74 6-15 26-22 41-15 13 7 20 23 14 38l-31 74zm-182-702c-20 0-37 17-37 37 0 21 17 37 37 37 21 0 37-16 37-37 0-20-16-37-37-37zm468-28c0 163-123 296-281 315l-34 4v87c0 22-18 40-40 40s-40-18-40-40v-97l-26-9c-126-43-216-160-216-300 0-176 143-318 318-319 176 1 319 143 319 319z"/>
    <path class="fil1" d="M3930 901l31-36c12 3 24 2 36-2l18 59-85-21zm157-419l-92-148c-1-1 11-13 33 8 25 25 55 74 68 106 5 14 9 27-9 34zm-49-222c-28-8-59-2-96 18-42 24-33 65-10 102l92 147c25 40 41 70 82 45 44-27 84-56 75-117-9-57-87-178-143-195zm315 244c-19 72-77 126-134 162-56 35-113 71-170 106-38 24-88 12-112-26-80-128-160-256-240-383-24-38-12-89 26-112 78-49 160-102 242-145 37-19 109-23 161-4 115 41 216 195 232 292 6 39 5 76-5 110zm-436 330c-30 34-70 67-63 91 6 20 29 20 53 26-61 70-134 205 12 252 154 50-10 101 27 146 31 38 87-40 93-87 6-44-30-86-103-111-48-15-49-31-49-55 2-45 63-111 80-130 44 11 90 31 108 12 7-7 9-17 6-26l-31-101c37-12 167-99 208-124 125-79 200-198 174-350-23-128-142-302-283-353-148-52-254 21-369 93-87 55-176 91-176 198 0 37 17 73 39 109l225 359c14 23 30 38 49 51z"/>
    <path class="fil2" d="M694 1517c48 0 74-37 57-82-63-168-126-336-189-503-17-45-71-83-119-83h-49c-48 0-102 38-119 83-63 167-126 335-189 503-17 45 9 82 57 82h34c49 0 96-25 105-55s56-55 104-55h58c49 0 96 25 105 55s56 55 105 55h40zm-252-410c7 24 14 47 22 71 34 112-130 112-96 0 8-24 15-47 22-71 14-46 38-47 52 0zm34 383c-19-14-104-15-127-1-36 79-105 98-175 101-46 3-94-1-132-35-43-39-52-100-32-152 63-168 124-336 189-503 32-81 105-129 192-132 16-1 32-1 49 0 87 2 160 51 191 132 66 167 126 336 190 503 35 95-28 187-130 187-81 0-171-4-215-100z"/>
    <path class="fil3" d="M686 998c9 47 33 83 75 107 40 24 103 38 189 42 52 2 86 7 102 17 33 21 38 56 14 87-33 42-138 40-161-5-14-26-58-43-101-30l-48 15c-41-111-82-221-125-331-3-8-7-16-11-24 3-7 6-14 10-22 20-39 52-73 90-98 69-46 190-73 273-73 48 0 92 8 133 27 69 31 115 97 139 171l24 79-49 13c48 38 80 92 91 152 9 55 4 107-18 158-28 68-84 119-150 151-77 36-257 70-332 39l-1-1c2-22-1-45-9-69l-7-16h1c26 14 60 22 101 23 77 2 188-19 252-62 68-47 105-122 89-205-13-73-60-117-130-138-38-12-100-19-185-21-25-1-80-1-86-34-6-37 26-54 57-60 20-3 71-1 83 17 15 23 58 36 102 25l96-23c-19-62-51-103-97-125-46-21-108-24-185-10-63 12-112 28-145 51-59 40-94 100-81 173z"/>
    <path class="fil4" d="M1512 1443c-6 14-10 28-11 34-10 90-92 144-175 135-10-1-19-1-28-2-89-10-151-91-142-173 32-15 63-34 88-58-2 22-5 45-7 67-5 45 28 86 72 90l28 3c45 5 85-24 90-66 4-41 33-96 63-121s68-12 84 30c14 39 29 77 43 115 17 42 66 80 111 85 24 3 48 5 72 8 45 5 65-24 46-65l-123-261c-19-41-6-98 28-126l125-104c34-28 26-56-19-61-30-3-60-7-90-10-45-5-109 16-141 47-36 33-71 66-106 99-33 31-55 20-51-25 3-24 5-47 8-70 5-45-28-86-72-91l-28-3c-45-5-85 28-90 73l-3 25c-14-17-27-31-45-45 17-5 33-9 50-13l-27-84c49-42 91-41 148-34 71 8 125 60 139 127 60-57 113-86 201-89l113 11c109 13 149 122 59 199-41 35-82 69-124 103-4 3-13 21-8 33 41 87 82 175 124 262 44 95-21 186-126 175-24-2-48-4-71-8-81-11-144-60-175-135-11-25-20-51-30-77z"/>
    <path class="fil5" d="M2468 1223c-75-148-148-295-223-442-39-74-116-112-196-106-15 1-30 2-45 4-81 12-147 65-168 146l-15 62 42 4c14 2 27 5 39 10 4-17 8-35 13-52 12-44 57-83 101-88 15-2 30-3 45-5 44-4 97 24 117 64 75 147 149 295 223 442 21 40 0 76-44 81-12 1-24 3-36 4-45 5-90-13-101-40-12-27-58-45-102-40l-53 6c-45 5-86 32-91 61-6 37-55 56-104 62l32 69c61-12 117-37 142-110 20-10 86-23 106-11 39 63 96 75 153 78l60-6c83-5 154-96 105-193zm-355-167c42 99-107 116-88 9 4-23 9-45 14-68 8-43 29-46 47-4l27 63zm-325 161c0 11 14 36 20 49l27-104c-13 10-25 21-38 31-2 2-9 14-9 24z"/>
    <path class="fil6" d="M2321 932l59 116c1-15 3-30 4-45 5-46 46-79 91-75l28 3c46 5 80 46 75 91-10 102-21 205-31 307-5 45 29 86 74 91s91 10 136 14c46 4 80 43 76 86-4 42-45 73-91 68l-330-33c-45-5-79-45-74-91l4-46c-33 3-52 4-81-1l-5 50c1 83 62 152 145 161 57 6 309 34 347 34 85 0 160-67 159-155 0-82-65-147-145-155-45-5-90-9-136-14-3 0-6-3-5-5 5-50 32-295 32-323 0-83-62-152-145-160l-44-4c-61 0-116 34-143 86z"/>
    <path class="fil7" d="M2957 1118c-2-22-4-45-7-68-5-44-26-48-46-9-11 21-21 41-32 61-50 94 97 123 85 16zm-306-118c1 31-13 148-17 185 65-107 131-214 196-321 23-37 78-62 122-53 14 3 29 5 43 8 44 9 86 51 93 95 28 161 56 323 83 484 8 44-22 73-65 64l-36-6c-43-9-82-39-85-68s-41-59-84-68c-18-3-35-6-52-9-44-9-91 5-104 31-1 3-3 5-5 8 50 4 58 9 104 35 18 10 43 1 63 18 8 6 4 90 145 125 56 14 113 17 158-28 31-31 42-77 35-119-28-161-53-323-83-485-15-81-74-139-155-157-19-5-58-12-76-12-69 2-132 31-170 93l-110 180z"/>
    <path class="fil8" d="M3446 1023c-77-69-117-116-232-117-16-1-33 1-49 5l14 82c51-13 113-1 151 33l194 171c35 31 54 19 43-26l-46-178c-12-45 15-91 60-103l17-5c44-12 91 17 102 62l117 454c11 45-16 90-61 102l-17 5c-44 12-110-4-144-35l-192-169c-35-30-54-18-42 26l45 176c28 111-152 154-180 46l-14-54c-18 19-45 33-72 37l8 32c18 73 84 121 157 122 17 0 38-5 56-9 91-21 138-119 117-197l-4-14c78 69 115 114 230 116 24 0 45-5 69-10 88-20 137-115 116-197l-116-455c-23-90-116-140-198-117l-16 5c-87 25-139 108-117 196l4 16z"/>
    <path class="fil9" d="M5072 1635c9 31 27 58 47 75 37 32 82 42 134 42 83 0 153-63 159-147l38-461c6-78-58-158-146-165l-41-3c-83 0-153 63-159 147l-24 283c28-2 55-1 81 3l23-276c4-45 43-78 88-75l28 3c45 3 79 43 75 88l-37 454c-4 45-43 79-88 75-27-2-49-1-72-19-39-3-70-12-106-24z"/>
    <path class="fil10" d="M5682 1258c21 109-133 91-89-10l28-64c18-42 39-40 48 5l13 69zm-262-213c29 40 32 73 28 126l84-164c21-40 75-70 121-64l45 5c45 6 92 46 103 91l122 491c11 44-17 75-62 70l-37-3c-46-5-88-34-93-63-5-30-47-58-92-63l-54-7c-45-5-92 13-104 41-8 19-34 32-63 37l-7 75c50-5 100-21 133-76 3-11 109 3 111 14 27 78 90 105 157 114 56 7 102 13 149-31 36-34 46-85 34-132l-122-491c-20-82-86-139-169-148l-65-7c-76 3-143 38-179 108l-40 77z"/>
  </g>
</g>
</svg>