<?xml version="1.0" encoding="UTF-8"?>
<!DOCTYPE svg PUBLIC "-//W3C//DTD SVG 1.1//EN" "http://www.w3.org/Graphics/SVG/1.1/DTD/svg11.dtd">
<!-- Creator: CorelDRAW X7 -->
<svg xmlns="http://www.w3.org/2000/svg" xml:space="preserve" width="600px" height="216px" version="1.1" style="shape-rendering:geometricPrecision; text-rendering:geometricPrecision; image-rendering:optimizeQuality; fill-rule:evenodd; clip-rule:evenodd"
viewBox="0 0 6000 2160"
 xmlns:xlink="http://www.w3.org/1999/xlink">
 <defs>
  <style type="text/css">
   <![CDATA[
    .fil2 {fill:#0F994E;fill-rule:nonzero}
    .fil0 {fill:#188AD6;fill-rule:nonzero}
    .fil4 {fill:#28A8DE;fill-rule:nonzero}
    .fil5 {fill:#524AAB;fill-rule:nonzero}
    .fil3 {fill:#9BBD3C;fill-rule:nonzero}
    .fil6 {fill:#B3208C;fill-rule:nonzero}
    .fil1 {fill:#E02147;fill-rule:nonzero}
    .fil8 {fill:#E22A38;fill-rule:nonzero}
    .fil9 {fill:#EC7C2D;fill-rule:nonzero}
    .fil7 {fill:#ED177B;fill-rule:nonzero}
    .fil10 {fill:#F5D000;fill-rule:nonzero}
   ]]>
  </style>
 </defs>
 <g id="Warstwa_x0020_1">
  <metadata id="CorelCorpID_0Corel-Layer"/>
  <g id="_2443651758064">
   <path class="fil0" d="M4742 1256c-20,0 -37,17 -37,38 0,20 17,37 37,37 21,0 38,-17 38,-37 0,-21 -17,-38 -38,-38zm-584 451c0,247 200,446 447,446 246,0 446,-199 446,-446 0,-28 -3,-56 -8,-83 18,7 37,14 58,20l0 1 5 1 0 0 0 0 0 0 4 1 0 0 1 0 3 1 1 0 1 1 3 0 1 0 0 0 1 1 2 0 1 1 1 0 1 0 2 0 2 1 0 0 1 0 1 0 0 0 2 1 3 0 2 1 2 0 3 1 1 0 1 0 3 1 1 0 3 0 1 0 1 1 3 0 1 0 0 0 3 0 1 1 1 0 3 0 1 0 1 0 2 1 3 0 2 0 1 0 1 0c52,4 101,-7 134,-48 17,-23 25,-45 25,-68 -1,-29 -15,-55 -38,-76 -20,-18 -46,-33 -76,-43 -19,-7 -40,-12 -62,-15l0 0 -1 0 -1 0 -1 0 -1 -1 0 0 -2 0 -1 0 0 0 0 0 -2 0 -1 0 -1 0 -1 -1 -1 0 0 0 -1 0 -2 0 0 0 -1 0 -1 0 -1 0 -2 0 -1 -1 -1 0 0 0 -1 0 -2 0 0 0 -2 0 0 0 -1 0 -2 0 -1 0 -1 0 -1 0 0 0 -2 0 -1 -1 0 0 -1 0 -2 0 0 0 -1 0 -1 0 -1 0 -2 0 -1 0 -1 0 0 0 -1 0 -2 0 0 0 -2 0 0 0 -2 0 0 0 -1 0 -1 0 -1 0 -1 0 -1 0 -1 0 0 0 -2 0 -1 0 -1 0c-2,0 -3,0 -5,0l-1 0 -1 0 -2 0 0 0 -1 0 0 0 -3 1 0 0 -2 0 -2 0c-23,1 -47,5 -70,12 35,-59 56,-129 56,-203 0,-121 -55,-230 -140,-302 31,-52 86,-92 155,-105 15,-3 29,-4 44,-4 104,0 191,67 208,161l4 20c35,11 65,33 85,62 2,-6 3,-13 2,-20l-15 -76c-25,-135 -147,-225 -284,-225 -19,0 -39,2 -59,6 -88,16 -161,68 -204,137 -57,-32 -123,-50 -193,-50 -44,0 -86,7 -126,20 -39,-51 -94,-90 -160,-109 -49,-15 -103,-18 -154,-8 -124,24 -225,120 -239,248l-25 222c-2,20 -2,41 1,61 2,25 9,49 18,72 -18,13 -31,30 -37,48 -10,27 -6,56 8,84 12,24 31,47 56,68 41,34 99,63 160,76 -8,34 -13,69 -13,106zm764 -188c85,143 64,328 -57,449 -144,144 -377,144 -521,0 -146,-146 -143,-380 3,-524 42,59 101,106 168,135l0 42c0,65 53,118 118,118 65,0 117,-53 117,-118l0 -20c65,-13 123,-42 172,-82zm-615 -144c-15,13 -28,27 -41,42 -43,-43 -115,-103 -186,-114 -13,-25 -20,-53 -20,-81 0,-7 0,-13 1,-20l24 -222c10,-94 97,-167 205,-168 8,0 17,1 25,2 57,6 105,32 139,68 -109,71 -181,194 -181,333 0,57 12,111 34,160zm694 127l21 -7c58,-19 125,-15 175,2 21,7 38,17 50,27 8,7 12,14 12,20 0,5 -2,11 -8,19 -50,63 -213,-24 -239,-39 -4,-8 -7,-15 -11,-22zm-805 25c-51,-9 -101,-33 -135,-62 -17,-14 -30,-28 -37,-42 -5,-10 -6,-18 -4,-24 1,-4 6,-9 14,-14 55,-33 143,49 186,95 -9,15 -17,31 -24,47zm578 448l31 -74c11,-27 10,-57 0,-82 -38,-91 -165,-85 -198,0l-31 74c-23,56 6,120 59,140 59,22 120,-7 139,-58l0 0zm-256 -132c-4,-26 -8,-53 -13,-79 -14,-93 -136,-123 -192,-45 -37,51 -11,107 -6,158 2,30 21,54 43,70 77,56 183,-10 168,-104zm-81 34c-16,22 -50,14 -54,-12 -4,-26 -8,-53 -13,-79 -6,-39 53,-48 59,-10l13 79c1,8 -1,16 -5,22zm265 68c0,0 0,0 0,0 -14,36 -70,14 -54,-23 10,-24 20,-49 30,-74 3,-6 10,-13 16,-16 27,-10 48,17 39,39l-31 74zm-182 -702c-20,0 -37,17 -37,37 0,21 17,37 37,37 21,0 37,-16 37,-37 0,-20 -16,-37 -37,-37zm468 -28c0,163 -123,296 -281,315l-34 4 0 87c0,22 -18,40 -40,40 -22,0 -40,-18 -40,-40l0 -97 -26 -9c-126,-43 -216,-160 -216,-300 0,-176 143,-318 318,-319 176,1 319,143 319,319z"/>
   <path class="fil1" d="M3930 901l31 -36c12,3 24,2 36,-2l18 59 -85 -21zm157 -419l-92 -148c-1,-1 11,-13 33,8 25,25 55,74 68,106 5,14 9,27 -9,34zm-49 -222c-28,-8 -59,-2 -96,18 -42,24 -33,65 -10,102l92 147c25,40 41,70 82,45 44,-27 84,-56 75,-117 -9,-57 -87,-178 -143,-195zm315 244c-19,72 -77,126 -134,162 -56,35 -113,71 -170,106 -38,24 -88,12 -112,-26 -80,-128 -160,-256 -240,-383 -24,-38 -12,-89 26,-112 78,-49 160,-102 242,-145 37,-19 109,-23 161,-4 115,41 216,195 232,292 6,39 5,76 -5,110zm-436 330c-30,34 -70,67 -63,91 6,20 29,20 53,26 -61,70 -134,205 12,252 154,50 -10,101 27,146 31,38 87,-40 93,-87 6,-44 -30,-86 -103,-111 -48,-15 -49,-31 -49,-55 2,-45 63,-111 80,-130 44,11 90,31 108,12 7,-7 9,-17 6,-26l-31 -101c37,-12 167,-99 208,-124 125,-79 200,-198 174,-350 -23,-128 -142,-302 -283,-353 -148,-52 -254,21 -369,93 -87,55 -176,91 -176,198 0,37 17,73 39,109l225 359c14,23 30,38 49,51z"/>
   <path class="fil2" d="M5682 1258c9,46 -15,79 -54,74 -37,-4 -53,-42 -35,-84l28 -64c18,-42 40,-40 48,5l13 69zm313 248l-122 -491c-24,-81 -86,-135 -169,-148l-46 -6c-6,-1 -15,-1 -19,-1 -76,3 -141,39 -179,108l-40 77c14,19 23,40 27,64 4,21 3,40 2,61l83 -163c21,-40 75,-70 121,-64l45 5c45,6 91,46 103,91l122 491c11,44 -17,76 -62,70l-37 -3c-46,-6 -88,-34 -93,-63 -5,-30 -47,-58 -92,-63l-54 -7c-45,-5 -93,13 -104,41 -8,19 -33,32 -63,37l-6 68c0,3 0,5 -1,7 51,-5 100,-21 133,-76 0,-1 2,-1 4,-2 4,-2 11,-2 18,-2l6 0 55 7c9,0 21,5 26,9 1,0 2,1 2,2 27,78 91,102 157,114l36 4c10,1 14,1 19,1l2 0c32,0 66,-11 92,-36 26,-24 40,-61 39,-94 0,-11 -1,-24 -5,-38z"/>
   <path class="fil3" d="M5073 1639c20,60 73,104 139,110l28 2c5,1 8,1 13,1 83,0 152,-63 159,-147l38 -457 0 -4c0,0 0,-1 0,-6 0,-83 -63,-152 -146,-159l-28 -2c-5,-1 -11,-1 -13,-1 -83,0 -152,63 -159,147l-24 283c28,-2 55,-1 81,3l23 -276c4,-45 43,-78 88,-75l28 3c45,3 79,43 75,88l-37 454c-4,45 -43,79 -88,75l-28 -2c-17,-1 -32,-8 -44,-17 -27,-2 -55,-8 -81,-16l-24 -4z"/>
   <path class="fil4" d="M694 1517c48,0 74,-37 57,-82 -63,-168 -126,-336 -189,-503 -17,-45 -71,-83 -119,-83 -17,0 -33,0 -49,0 -48,0 -102,38 -119,83 -63,167 -126,335 -189,503 -17,45 9,82 57,82 11,0 23,0 34,0 49,0 96,-25 105,-55 9,-30 56,-55 104,-55 20,0 39,0 58,0 49,0 96,25 105,55 9,30 56,55 105,55 13,0 26,0 40,0zm-252 -410c7,24 14,47 22,71 34,112 -130,112 -96,0 8,-24 15,-47 22,-71 14,-46 38,-47 52,0zm34 383c-19,-14 -104,-15 -127,-1 -36,79 -105,98 -175,101 -46,3 -94,-1 -132,-35 -43,-39 -52,-100 -32,-152 63,-168 124,-336 189,-503 32,-81 105,-129 192,-132 16,-1 32,-1 49,0 87,2 160,51 191,132 66,167 126,336 190,503 35,95 -28,187 -130,187 -81,0 -171,-4 -215,-100z"/>
   <path class="fil5" d="M686 998c9,47 33,83 75,107 40,24 103,38 189,42 52,2 86,7 102,17 33,21 38,56 14,87 -33,42 -138,40 -161,-5 -14,-26 -58,-43 -101,-30l-48 15c-41,-111 -82,-221 -125,-331 -3,-8 -7,-16 -11,-24 3,-7 6,-14 10,-22 20,-39 52,-73 90,-98 69,-46 190,-73 273,-73 48,0 92,8 133,27 69,31 115,97 139,171l24 79 -49 13c48,38 80,92 91,152 9,55 4,107 -18,158 -28,68 -84,119 -150,151 -77,36 -257,70 -332,39 0,0 -1,-1 -1,-1 2,-22 -1,-45 -9,-69l-7 -16 1 0c26,14 60,22 101,23 77,2 188,-19 252,-62 68,-47 105,-122 89,-205 -13,-73 -60,-117 -130,-138 -38,-12 -100,-19 -185,-21 -25,-1 -80,-1 -86,-34 -6,-37 26,-54 57,-60 20,-3 71,-1 83,17 15,23 58,36 102,25l96 -23c-19,-62 -51,-103 -97,-125 -46,-21 -108,-24 -185,-10 -63,12 -112,28 -145,51 -59,40 -94,100 -81,173z"/>
   <path class="fil6" d="M1929 915c22,15 44,48 43,81 -2,48 -27,73 -50,94 -41,34 -83,69 -124,103 -3,1 -10,14 -10,24 0,6 2,8 2,9 41,87 82,175 124,262 8,18 14,39 14,61 1,30 -13,65 -39,86 -25,22 -55,29 -82,29 0,0 -1,0 -1,0 -5,0 -11,0 -18,-1 -24,-3 -48,-5 -71,-8 -81,-12 -143,-60 -175,-135 -10,-25 -20,-51 -30,-77 -6,14 -12,28 -11,34 -10,83 -81,137 -157,136 -7,0 -12,0 -18,-1 -10,-1 -19,-2 -28,-2 -82,-10 -142,-79 -142,-159 0,-3 0,-8 0,-14 19,-9 36,-18 52,-29 13,-9 25,-19 36,-29 -2,22 -5,45 -7,67 -5,45 28,86 72,90 10,1 19,2 28,3 45,5 85,-24 90,-66 4,-41 33,-96 63,-121 30,-25 68,-12 84,30 14,39 29,77 43,115 17,42 66,80 111,85 24,3 48,5 72,8 45,5 65,-24 46,-65 -41,-87 -82,-174 -123,-261 -19,-41 -6,-98 28,-126 42,-35 83,-69 125,-104 34,-29 26,-56 -19,-61 -30,-3 -60,-7 -90,-10 -45,-5 -109,17 -141,47 -36,33 -71,66 -106,99 -33,31 -55,20 -51,-25 3,-24 5,-47 8,-70 5,-45 -28,-86 -72,-91 -10,-1 -19,-2 -28,-3 -45,-5 -85,28 -90,73 -1,8 -2,17 -3,25 -4,-5 -8,-10 -13,-15 -9,-12 -20,-21 -32,-30 17,-5 33,-9 50,-13 -8,-26 -17,-52 -25,-78 -1,-3 -1,-4 -2,-6 28,-24 64,-38 103,-38 5,0 12,0 17,1 9,1 19,2 28,3 71,8 125,60 139,127 7,-7 14,-13 21,-20 51,-45 113,-67 180,-69 7,0 14,1 22,2 30,3 60,6 91,9 21,3 43,8 66,24z"/>
   <path class="fil7" d="M2468 1223l-223 -442c-38,-68 -102,-105 -178,-107 -7,0 -14,1 -18,1l-45 4c-81,13 -143,67 -168,146l-15 62 41 4c13,2 26,5 40,10l13 -52c12,-44 57,-83 101,-88l45 -5c44,-4 97,24 117,64l223 442c21,40 0,76 -44,81l-36 4c-45,5 -90,-13 -101,-40 -12,-27 -58,-45 -102,-40l-53 6c-45,5 -86,32 -91,61 -5,29 -45,56 -90,60l-14 2 32 69c61,-12 117,-37 142,-110 2,-1 3,-2 6,-3 6,-3 13,-6 20,-7l53 -5c4,-1 6,-1 6,-1 8,0 18,3 21,5 39,63 96,75 153,78 8,0 15,-1 22,-2l38 -4c61,-3 123,-60 121,-128 0,-23 -6,-45 -16,-65zm-355 -167c17,41 2,77 -36,82 -36,4 -59,-29 -52,-73l14 -68c7,-43 29,-46 47,-4l27 63zm-325 161c0,5 1,8 2,9l18 40 27 -104 -38 31c-2,1 -10,14 -9,24z"/>
   <path class="fil8" d="M2762 1352l-136 -14c-3,0 -5,-3 -5,-5l31 -308c1,-6 1,-10 1,-15 0,-83 -62,-152 -145,-160l-28 -3c-6,-1 -14,-1 -16,-1 -61,0 -116,34 -143,86l59 116 4 -45c5,-46 45,-79 91,-75l28 3c46,5 80,46 75,91l-31 307c-5,45 29,86 74,91l136 14c46,4 80,43 76,86 -5,42 -45,73 -91,68l-330 -33c-45,-5 -79,-45 -74,-91l4 -46 -16 2c-8,1 -15,2 -23,2 -14,-1 -28,-2 -42,-5l-3 31c-2,11 -2,17 -2,19 1,83 62,152 145,161l330 33c7,0 11,1 16,1l1 0c78,0 149,-55 159,-139l0 -3 0 -3 0 -10c0,-82 -65,-147 -145,-155z"/>
   <path class="fil9" d="M2957 1118l-7 -68c-5,-44 -26,-48 -46,-9l-32 61c-21,39 -8,77 28,84 37,7 62,-23 57,-68zm288 263l-83 -485c-18,-81 -74,-138 -155,-157l-44 -9c-11,-2 -22,-3 -32,-3 -69,2 -130,32 -170,93l-110 180c0,3 0,6 0,10 0,5 0,9 -1,15l-16 160 196 -321c23,-37 78,-62 122,-53l43 8c44,9 86,51 93,95l83 484c8,44 -22,73 -65,64l-36 -6c-43,-9 -82,-39 -85,-68 -3,-29 -41,-59 -84,-68l-52 -9c-44,-9 -91,5 -104,31 -1,3 -3,5 -5,8l21 2c31,3 60,15 83,33l39 7c9,2 19,7 24,11 0,0 1,1 1,1 21,79 81,107 144,124l36 7c10,1 19,2 29,2l1 0c33,0 67,-12 92,-37 25,-25 37,-60 37,-93 0,-8 -1,-17 -2,-26z"/>
   <path class="fil10" d="M3889 1378l-116 -455c-19,-73 -84,-122 -158,-122 -13,0 -27,2 -40,5l-16 5c-73,18 -122,84 -122,156 0,14 2,28 5,40l4 16 -68 -60c-48,-40 -104,-57 -164,-57 -16,0 -33,1 -50,6l14 81 8 -2c45,-12 109,5 144,35l194 171c35,30 54,19 43,-26l-46 -178c-12,-45 15,-91 60,-103l17 -5c45,-10 91,17 102,62l117 454c11,45 -16,91 -61,102l-17 5c-44,12 -109,-5 -144,-35l-192 -169c-35,-30 -54,-18 -42,26l45 176c11,45 -16,91 -61,103l-16 4c-45,11 -91,-16 -103,-61l-14 -53c0,1 -1,2 -2,3 -19,19 -45,31 -70,35l8 30c18,73 84,121 157,122 12,0 26,-2 39,-5l17 -4c73,-20 122,-85 122,-157 0,-13 -2,-27 -5,-40l-4 -14 66 58c48,40 105,56 164,58 16,0 34,-2 51,-6l18 -4c73,-20 121,-85 121,-158 0,-13 -1,-26 -5,-39z"/>
   <path class="fil0" d="M806 1699c0,-22 18,-40 40,-40l6 0c23,0 41,18 41,40l0 78c0,22 12,26 27,9l10 -12c15,-17 45,-31 67,-31l24 0c22,0 27,13 11,28l-21 22c-16,15 -20,44 -8,63l43 74c11,19 2,35 -20,35l-15 0c-22,0 -48,-16 -59,-36l-8 -17c-10,-19 -26,-28 -35,-20 -8,9 -15,29 -15,45 0,16 -19,29 -41,29l-6 0c-22,0 -40,-18 -40,-41l-1 -226zm287 84c0,-22 18,-40 39,-40 22,0 40,8 40,18 0,10 7,6 16,-9l8 -6c8,-6 18,-9 30,-9 13,0 27,4 42,12l-11 23c-8,21 -24,35 -34,31l-5 0c-12,0 -20,5 -26,14 -9,13 -13,38 -13,73l0 34c0,22 -18,41 -41,41l-4 0c-22,0 -41,-18 -41,-41l0 -141zm348 89c0,-8 -11,-10 -24,-6l-12 3c-18,5 -29,10 -33,14 -5,5 -7,10 -7,16 0,7 2,12 7,17 4,4 11,6 20,6 10,0 19,-3 27,-7 8,-5 14,-11 17,-17 4,-7 5,-15 5,-26zm-74 -58l-41 -4c-22,-3 -37,-16 -33,-30l6 -8c6,-8 14,-15 25,-22 8,-4 18,-7 32,-10 14,-2 29,-3 44,-3 26,0 46,1 62,4 15,3 28,9 39,18 7,6 13,15 17,26 4,12 6,23 6,33l0 58c1,22 1,49 1,59l2 6c1,6 4,13 8,23l-39 0c-22,0 -43,-5 -46,-10l-1 -3c-1,-3 -2,-8 -3,-14 -11,10 -22,18 -33,23 -15,6 -33,9 -52,9 -27,0 -47,-6 -61,-18 -14,-12 -21,-27 -21,-46 0,-16 5,-30 15,-41 10,-11 28,-19 55,-25 32,-6 52,-11 62,-13 9,-3 19,-6 30,-11 0,-10 -2,-17 -7,-21 -4,-5 -11,-7 -22,-7 -14,0 -25,3 -32,7 -5,4 -10,10 -13,20zm211 -32c0,-23 18,-41 41,-41l4 0c22,0 40,18 40,40l1 142c0,22 -18,40 -40,40l-5 0c-22,0 -40,-18 -40,-40l-1 -141zm140 -1c0,-22 18,-40 39,-40 22,0 40,8 40,18 0,10 11,6 24,-8l12 -6c12,-7 27,-10 44,-10 24,0 42,7 56,21 13,14 20,36 20,65l0 101c0,22 -18,40 -40,40l-5 0c-22,1 -40,-18 -40,-40l0 -41c0,-22 -2,-51 -3,-64l-5 -6c-5,-6 -13,-9 -22,-9 -10,0 -19,4 -25,12 -7,8 -10,22 -10,42l0 66c1,23 -18,41 -40,41l-4 0c-22,0 -41,-18 -41,-40l0 -142zm437 89c0,-8 -10,-10 -24,-6l-12 3c-17,5 -28,10 -33,14 -5,5 -7,10 -7,16 0,6 2,12 7,16 5,4 12,7 21,7 9,0 18,-3 26,-7 8,-5 14,-11 17,-17 4,-7 5,-16 5,-26zm-74 -58l-41 -4c-22,-3 -37,-16 -33,-30l6 -8c6,-9 14,-16 25,-22 8,-4 19,-7 32,-10 14,-2 29,-3 45,-4 25,0 46,2 61,5 16,2 29,8 39,17 7,7 13,16 17,27 4,11 7,23 7,33l0 58c0,22 0,49 1,59l1 6c1,6 4,13 9,22l-40 0c-22,1 -43,-4 -46,-9l-1 -3c-1,-3 -2,-8 -2,-15 -12,11 -23,19 -34,23 -15,7 -32,10 -52,10 -27,0 -47,-6 -61,-18 -13,-12 -20,-28 -20,-46 0,-17 5,-30 14,-41 10,-11 29,-19 55,-25 32,-6 53,-11 62,-13 10,-3 20,-6 30,-11 0,-10 -2,-17 -6,-22 -5,-4 -12,-6 -23,-6 -14,0 -25,3 -32,7 -5,4 -9,10 -13,20zm413 -45c0,-16 18,-29 41,-29l125 0c22,0 40,11 40,25 0,13 -12,38 -28,53l-55 57c-16,16 -10,29 12,29l38 0c22,0 41,13 41,29 0,16 -18,29 -41,29l-140 1c-22,0 -41,-13 -41,-28 0,-15 13,-41 28,-57l50 -51c16,-16 10,-29 -12,-29l-17 0c-23,1 -41,-12 -41,-29zm400 101c0,-8 -11,-11 -24,-6l-13 3c-17,5 -28,9 -32,14 -5,4 -8,10 -8,16 1,6 3,12 7,16 5,4 12,6 21,6 10,0 18,-2 27,-7 8,-4 13,-10 17,-17 3,-6 5,-15 5,-25zm-74 -59l-41 -4c-22,-2 -37,-15 -33,-29l6 -9c5,-8 14,-15 25,-21 7,-4 18,-8 32,-10 13,-2 28,-4 44,-4 26,0 46,2 62,4 15,3 28,9 38,18 8,6 13,15 18,27 4,11 6,22 6,33l0 57c0,23 1,49 1,60l1 5c2,6 5,14 9,23l-39 0c-23,0 -43,-4 -46,-10l-1 -3c-1,-3 -2,-7 -3,-14 -11,11 -22,19 -33,23 -15,6 -33,10 -53,10 -26,0 -46,-6 -60,-19 -14,-12 -21,-27 -21,-45 0,-17 5,-31 15,-42 10,-11 28,-19 55,-24 31,-7 52,-11 62,-14 9,-2 19,-6 30,-10 0,-10 -3,-18 -7,-22 -4,-4 -12,-6 -23,-6 -14,0 -24,2 -31,7 -5,3 -10,10 -13,19zm298 38c0,19 4,33 11,41 7,9 16,13 27,13 11,0 19,-4 26,-13 7,-8 10,-22 10,-42 0,-18 -3,-31 -10,-39 -7,-8 -15,-12 -25,-12 -11,0 -21,4 -28,13 -7,8 -11,22 -11,39zm-86 -154c0,-23 18,-41 41,-41l5 0c22,0 40,18 40,40l0 26c0,22 9,33 19,25l10 -5c11,-4 23,-7 36,-7 27,0 50,10 67,29 18,20 27,48 27,84 0,24 -4,46 -12,64 -8,19 -19,32 -33,42 -14,9 -30,13 -48,14 -15,0 -28,-4 -41,-10 -9,-5 -19,-14 -30,-28 0,18 -18,33 -40,33 -22,0 -40,-18 -40,-40l-1 -226zm438 173c0,-8 -11,-10 -24,-6l-13 3c-17,5 -28,10 -33,14 -5,5 -7,10 -7,16 0,6 3,12 7,16 5,4 12,7 21,7 9,0 18,-3 26,-8 8,-4 14,-10 18,-16 3,-7 5,-16 5,-26zm-74 -58l-42 -4c-22,-3 -36,-16 -32,-30l5 -8c6,-9 14,-16 25,-22 8,-4 19,-7 32,-10 14,-2 29,-3 45,-4 25,0 46,2 61,5 16,2 29,8 39,17 8,6 13,16 17,27 5,11 7,23 7,33l0 58c0,22 0,48 1,59l1 6c2,6 4,13 9,22l-40 0c-22,1 -42,-4 -45,-9l-1 -4c-1,-2 -2,-7 -3,-14 -11,11 -23,19 -33,23 -16,7 -33,10 -53,10 -26,0 -47,-6 -60,-18 -14,-12 -21,-28 -21,-46 0,-17 5,-31 15,-41 9,-11 28,-19 54,-25 32,-6 53,-11 62,-13 10,-3 20,-7 30,-11 0,-10 -2,-17 -6,-22 -4,-4 -12,-6 -23,-6 -14,0 -24,3 -31,7 -6,3 -10,10 -13,20zm197 -35c-8,-21 4,-38 26,-38l2 0c22,0 45,17 50,39l16 61c6,22 16,22 22,1l20 -63c7,-21 30,-38 51,-38 21,-1 44,17 52,38l21 63c7,21 18,21 23,-1l16 -62c5,-21 28,-39 50,-39l1 0c22,0 34,17 27,38l-54 146c-8,21 -31,38 -52,38 -21,0 -43,-17 -51,-38l-19 -57c-7,-21 -19,-21 -25,1l-19 56c-7,22 -29,39 -50,39 -21,0 -45,-17 -52,-38l-55 -146zm-2015 -74c0,-16 15,-30 32,-30l25 1c17,0 31,13 31,30 -1,16 -15,29 -32,29l-25 0c-17,0 -31,-14 -31,-30z"/>
  </g>
 </g>
</svg>
